<?xml version="1.0" standalone="no"?>
<!DOCTYPE svg PUBLIC "-//W3C//DTD SVG 20010904//EN"
 "http://www.w3.org/TR/2001/REC-SVG-20010904/DTD/svg10.dtd">
<svg version="1.0" xmlns="http://www.w3.org/2000/svg"
 width="612.000000pt" height="408.000000pt" viewBox="0 0 612.000000 408.000000"
 preserveAspectRatio="xMidYMid meet">

<g transform="translate(0.000000,408.000000) scale(0.100000,-0.100000)"
fill="#000000" stroke="none">
<path d="M1560 1551 c0 -5 9 -13 21 -16 32 -10 39 -46 39 -192 0 -156 10 -190
72 -230 28 -19 55 -27 106 -30 90 -6 147 22 180 87 20 40 22 59 22 185 0 146
10 185 46 185 8 0 12 5 9 10 -7 11 -155 14 -155 3 0 -5 14 -16 30 -25 l30 -17
0 -146 c0 -158 -7 -185 -56 -224 -42 -33 -124 -29 -164 7 -40 35 -49 78 -50
230 0 109 2 124 20 142 11 11 25 20 30 20 6 0 10 5 10 10 0 6 -38 10 -95 10
-52 0 -95 -4 -95 -9z"/>
<path d="M2120 1552 c0 -2 12 -14 28 -27 27 -23 27 -23 30 -178 4 -172 -3
-217 -36 -232 -42 -19 -21 -25 83 -25 63 0 105 4 105 10 0 6 -11 10 -23 10
-40 0 -57 29 -57 98 l0 62 70 0 c83 0 126 16 163 59 35 42 38 124 6 165 -41
52 -71 60 -226 61 -79 0 -143 -1 -143 -3z m250 -37 c16 -9 36 -29 45 -45 17
-34 20 -102 4 -132 -19 -35 -107 -60 -153 -42 -13 5 -16 24 -16 108 0 66 4
106 12 114 17 17 73 15 108 -3z"/>
<path d="M2580 1550 c0 -3 14 -13 30 -22 l30 -17 0 -181 c0 -188 -6 -220 -40
-220 -11 0 -20 -4 -20 -10 0 -6 42 -10 105 -10 107 0 131 8 73 25 l-33 10 -3
88 -3 87 31 0 c46 0 61 -11 129 -99 77 -100 103 -121 151 -121 46 0 57 10 28
24 -12 6 -52 48 -88 92 -36 45 -80 90 -98 101 l-33 20 41 12 c96 29 108 154
20 205 -31 18 -52 21 -177 21 -79 0 -143 -2 -143 -5z m249 -34 c50 -26 68
-112 32 -157 -14 -18 -31 -23 -80 -27 l-61 -4 0 89 c0 56 4 93 12 101 16 16
63 15 97 -2z"/>
<path d="M3130 1552 c0 -2 11 -13 26 -25 l25 -22 0 -175 c0 -97 -3 -183 -6
-192 -4 -9 -21 -23 -38 -30 -28 -12 -12 -13 148 -16 l180 -3 23 26 c12 14 22
37 22 51 0 26 -15 33 -23 10 -9 -24 -90 -56 -141 -56 -80 0 -86 8 -86 105 l0
85 43 0 c24 0 52 -7 63 -15 30 -23 40 -18 57 27 18 46 16 58 -8 38 -10 -8 -44
-14 -83 -14 l-67 -1 -3 75 c-1 41 2 82 8 90 7 11 27 15 71 15 54 -1 64 -4 85
-28 13 -15 25 -27 28 -27 5 0 26 66 26 81 0 3 -79 5 -175 5 -96 -1 -175 -2
-175 -4z"/>
<path d="M3786 1529 c-8 -40 -144 -355 -169 -391 -10 -16 -25 -28 -33 -28 -8
0 -14 -4 -14 -10 0 -6 32 -10 75 -10 71 0 99 11 55 23 -28 7 -33 29 -16 71
l15 36 95 0 c104 0 119 -7 131 -60 7 -33 1 -50 -21 -50 -8 0 -14 -4 -14 -10 0
-6 37 -10 90 -10 53 0 90 4 90 10 0 6 -6 10 -14 10 -23 0 -39 29 -132 246 -76
175 -91 204 -110 204 -16 0 -23 -8 -28 -31z m57 -170 c20 -49 37 -94 37 -100
0 -5 -36 -9 -80 -9 -57 0 -80 4 -80 12 0 18 73 188 80 188 3 0 23 -41 43 -91z"/>
<path d="M4130 1548 c0 -4 9 -10 21 -13 11 -4 24 -18 30 -32 12 -32 12 -324 0
-356 -5 -14 -25 -31 -43 -38 -30 -13 -21 -14 117 -17 198 -4 254 16 310 112
50 85 42 204 -17 272 -60 68 -94 78 -265 79 -84 0 -153 -3 -153 -7z m279 -38
c78 -39 113 -109 112 -222 0 -114 -54 -168 -165 -168 -95 0 -96 1 -96 206 0
196 3 204 71 204 22 0 57 -9 78 -20z"/>
</g>
</svg>
